<?xml version="1.0" standalone="no"?><!DOCTYPE svg PUBLIC "-//W3C//DTD SVG 1.1//EN" "http://www.w3.org/Graphics/SVG/1.1/DTD/svg11.dtd"><svg t="1694049047811" class="icon" viewBox="0 0 1064 1024" version="1.1" xmlns="http://www.w3.org/2000/svg" p-id="16239" xmlns:xlink="http://www.w3.org/1999/xlink" width="207.8125" height="200"><path d="M764.367 86.907h-648.15c-14.585 0-27.024 12.44-27.024 27.024v527.614c0 15.013 12.44 27.024 27.024 27.024h648.15c14.585 0 26.595-12.010 26.595-27.024v-527.614c0-14.585-12.010-27.024-26.595-27.024zM848.013 355.432v287.399c0 44.183-36.461 80.644-80.644 80.644h-497.158v187.453c0 14.155 12.010 25.737 27.024 25.737h647.722c15.013 0 27.024-11.582 27.024-25.737v-529.759c0-14.155-12.010-25.737-27.024-25.737h-96.944zM848.013 300.525h96.944c46.327 0 84.075 36.032 84.075 80.644v529.759c0 44.611-37.748 81.072-84.075 81.072h-647.722c-46.328 0-84.075-36.461-84.075-81.072v-187.453h-100.375c-44.182 0-80.644-36.461-80.644-80.644v-530.188c0-44.182 36.461-80.644 80.644-80.644h654.584c44.182 0 80.644 36.461 80.644 80.644v187.882z" p-id="16240"></path></svg>